<svg version="1.1" id="Layer_1" xmlns="http://www.w3.org/2000/svg" xmlns:xlink="http://www.w3.org/1999/xlink" x="0px" y="0px"
	 viewBox="0 0 206 192.8" enable-background="new 0 0 206 192.8" xml:space="preserve">
<g>
	<polygon fill="#B38F55" points="69.6,180.1 63.4,180.1 63.4,183.8 68.9,183.8 68.9,184.9 63.4,184.9 63.4,188.7 69.6,188.7 
		69.6,189.9 62.2,189.9 62.2,179 69.6,179 	"/>
	<path fill="#B38F55" d="M77.8,183.8c2.3,0.5,3.3,1.4,3.3,3.1c0,1.9-1.5,3.1-3.5,3.1c-1.6,0-2.9-0.6-4.2-1.7l0.7-0.9
		c1.1,1,2.1,1.5,3.5,1.5c1.4,0,2.3-0.8,2.3-1.9c0-1-0.5-1.6-2.6-2.1c-2.3-0.5-3.4-1.3-3.4-3.1c0-1.7,1.4-3,3.3-3
		c1.5,0,2.5,0.4,3.6,1.3l-0.7,0.9c-0.9-0.8-1.9-1.2-2.9-1.2c-1.3,0-2.2,0.8-2.2,1.8C75,182.8,75.5,183.3,77.8,183.8"/>
	<polygon fill="#B38F55" points="89.4,189.9 88.2,189.9 88.2,180.1 84.8,180.1 84.8,179 92.8,179 92.8,180.1 89.4,180.1 	"/>
	<rect x="95.3" y="188.2" fill="#B38F55" width="1.3" height="1.6"/>
	<polygon fill="#B38F55" points="109.2,178.9 110,178.9 110,189.9 108.9,189.9 108.9,180.2 107,180.8 106.7,179.8 	"/>
	<path fill="#B38F55" d="M118.4,179.9c-1.3,0-2.3,0.8-2.3,1.9c0,1.2,1,2,2.3,2s2.3-0.8,2.3-2C120.7,180.7,119.7,179.9,118.4,179.9
		 M118.4,184.8c-1.5,0-2.7,0.9-2.7,2.1c0,1.1,1,2,2.7,2c1.7,0,2.7-0.9,2.7-2C121,185.7,119.9,184.8,118.4,184.8 M118.4,190
		c-2.2,0-3.8-1.3-3.8-3.1c0-1.3,0.9-2.2,2.1-2.7c-0.9-0.5-1.7-1.2-1.7-2.5c0-1.7,1.6-2.9,3.5-2.9c1.9,0,3.5,1.2,3.5,2.9
		c0,1.3-0.8,2-1.7,2.5c1.2,0.5,2.1,1.4,2.1,2.7C122.2,188.8,120.6,190,118.4,190"/>
	<path fill="#B38F55" d="M130,179.9c-1.3,0-2.3,0.8-2.3,1.9c0,1.2,1,2,2.3,2s2.3-0.8,2.3-2C132.3,180.7,131.3,179.9,130,179.9
		 M130,184.8c-1.5,0-2.7,0.9-2.7,2.1c0,1.1,1,2,2.7,2c1.7,0,2.7-0.9,2.7-2C132.6,185.7,131.4,184.8,130,184.8 M130,190
		c-2.2,0-3.8-1.3-3.8-3.1c0-1.3,0.9-2.2,2.1-2.7c-0.9-0.5-1.7-1.2-1.7-2.5c0-1.7,1.6-2.9,3.5-2.9s3.5,1.2,3.5,2.9
		c0,1.3-0.8,2-1.7,2.5c1.2,0.5,2.1,1.4,2.1,2.7C133.8,188.8,132.1,190,130,190"/>
	<path fill="#B38F55" d="M141.5,179.9c-1.3,0-2.3,0.8-2.3,1.9c0,1.2,1,2,2.3,2c1.3,0,2.3-0.8,2.3-2
		C143.9,180.7,142.9,179.9,141.5,179.9 M141.5,184.8c-1.5,0-2.7,0.9-2.7,2.1c0,1.1,1,2,2.7,2c1.7,0,2.7-0.9,2.7-2
		C144.2,185.7,143,184.8,141.5,184.8 M141.5,190c-2.2,0-3.8-1.3-3.8-3.1c0-1.3,0.9-2.2,2.1-2.7c-0.9-0.5-1.7-1.2-1.7-2.5
		c0-1.7,1.6-2.9,3.5-2.9c1.9,0,3.5,1.2,3.5,2.9c0,1.3-0.8,2-1.7,2.5c1.2,0.5,2.1,1.4,2.1,2.7C145.4,188.8,143.7,190,141.5,190"/>
	<path fill="#B38F55" d="M12.1,144.4c-1.3,0-2.9-0.2-4.1-0.4v-13.4h5.2c5.9,0,9.7,1.1,9.7,6.2C22.9,143,16.8,144.4,12.1,144.4
		 M15.5,128.9H2.9c0,0,0.4,2.1,0.4,15.1c0,13-0.4,16.1-0.4,16.1h5c0,0-0.1-1.5-0.1-7c0-5.5,0.2-7.2,0.2-7.2c1.5,0.1,2.9,0.1,4.7,0.1
		c5.5,0,15.3-1.5,15.3-9.5C28,129,19,128.9,15.5,128.9"/>
	<path fill="#B38F55" d="M39,146.3l5.5-11.3l5.4,11.3H39z M56.5,160.1h5.8c0,0-1.8-2.4-8.3-15.6c-6.6-13.2-7.6-15.6-7.6-15.6h-1.2
		l-16.6,31.2h0l0,0h3.6l5.8-11.8l12.9,0L56.5,160.1z"/>
	<path fill="#B38F55" d="M74.3,143.2v-2.5c0-3.2,0-6.5,0-9.8c1.3-0.1,3-0.1,5.4-0.1c3.6,0,8.2,1.2,8.2,5.9c0,5.3-5.8,6.8-10.2,6.8
		C76.4,143.4,75.2,143.4,74.3,143.2 M81.9,144.8c4.1-0.5,10.9-2.9,10.9-8.7c0-5.5-5.2-7.2-11.3-7.2H69.3l0,0h0c0,0,0.4,2.1,0.4,15.1
		c0,13-0.4,16.1-0.4,16.1h0l0,0h5v0h0l0-2.4v-12.7l1.9,0.1c4.5,4.8,11.4,12.2,13.9,15l0,0h6.6l-0.2-0.1
		C93.5,157.2,84.7,147.7,81.9,144.8"/>
	<path fill="#B38F55" d="M180.6,143.1v-2.5c0-3.2,0-6.5,0-9.8c1.3-0.1,3-0.1,5.4-0.1c3.6,0,8.2,1.2,8.2,5.9c0,5.3-5.8,6.8-10.2,6.8
		C182.8,143.3,181.6,143.2,180.6,143.1 M188.3,144.7c4.1-0.5,10.9-2.9,10.9-8.7c0-5.5-5.2-7.2-11.3-7.2h-12.3l0,0h0
		c0,0,0.4,2.1,0.4,15.1c0,13-0.4,16.1-0.4,16.1h0l0,0h5v0h0l0-2.4V145l1.9,0.1c4.5,4.8,11.4,12.2,13.9,14.9l0,0h6.6l-0.2-0.1
		C199.8,157.1,191.1,147.6,188.3,144.7"/>
	<path fill="#B38F55" d="M164.9,157.8l-14.5,0l-0.1-13.4h13v-2.1h-13c0-1.2,0-3.3,0-5.6c0-2.2,0.1-3.7,0.2-5.6l14.1,0.1v-2.2l0-0.1
		h-19.3v31.2h19.6l0-0.1V157.8z"/>
	<path fill="#B38F55" d="M100.6,85.9l-4,4.7c0,0.9-0.1,1.8-0.1,2.6l4.2-4.8V85.9z"/>
	<path fill="#B38F55" d="M100.6,89.7l-4.2,4.8c-0.1,1-0.1,1.8-0.1,2.6l4.3-5L100.6,89.7z"/>
	<path fill="#B38F55" d="M100.7,82.3l-3.9,4.5c0,0.8-0.1,1.6-0.1,2.5l4-4.6L100.7,82.3z"/>
	<path fill="#B38F55" d="M106.3,102.8v-0.1l-5.1-5.9l-5.1,5.9v0.1c0,0.6,0.5,1,1.5,1h3.1h1h3.1C105.8,103.8,106.3,103.4,106.3,102.8
		"/>
	<path fill="#B38F55" d="M96.2,101.1l4.4-5.1l0-2.5l-4.3,5C96.2,99.5,96.2,100.3,96.2,101.1"/>
	<path fill="#B38F55" d="M100.7,74.7l-3.6,4.2c0,0.8-0.1,1.5-0.1,2.4l3.7-4.3V74.7z"/>
	<path fill="#B38F55" d="M100.7,78.5l-3.8,4.3c0,0.8-0.1,1.6-0.1,2.4l3.9-4.5L100.7,78.5z"/>
	<path fill="#B38F55" d="M105.4,78.9l-3.6-4.2l0,2.3l3.7,4.3C105.4,80.5,105.4,79.7,105.4,78.9"/>
	<path fill="#B38F55" d="M106.1,94.6l-4.2-4.9v2.5l4.3,5C106.1,96.4,106.1,95.5,106.1,94.6"/>
	<path fill="#B38F55" d="M105.5,82.9l-3.8-4.4v2.3l3.9,4.5C105.6,84.5,105.6,83.7,105.5,82.9"/>
	<path fill="#B38F55" d="M106.3,101.1c0-0.7,0-1.6,0-2.6l-4.4-5l0,2.5L106.3,101.1z"/>
	<path fill="#B38F55" d="M106,93.2c-0.1-0.8-0.1-1.7-0.1-2.6l-4.1-4.7l0,2.5L106,93.2z"/>
	<path fill="#B38F55" d="M105.8,89.3c0-0.8-0.1-1.6-0.1-2.5l-3.9-4.5l0,2.4L105.8,89.3z"/>
	<path fill="#B38F55" d="M99.6,27.6l0-2.1L99.6,27.6c-0.2,11.6-0.5,30.7-0.8,33.7c-0.4,4.3-1.5,6.5-1.5,10.6c0,0.5-0.1,1.5-0.1,2.8
		l0,0c-40.9-0.6-71.8-11.2-71.8-23.5C25.4,38.6,57.6,27.9,99.6,27.6 M102.9,27.6c42,0.3,74.1,11,74.1,23.6
		c0,12.4-30.9,22.9-71.8,23.5l0,0c-0.1-1.3-0.1-2.2-0.1-2.8c0-4.1-1-6.3-1.5-10.6C103.4,58.3,103.1,39.3,102.9,27.6l0-2L102.9,27.6z
		 M97.2,77.3L97.2,77.3l3.5-4.1l0.5-65.5h0.1l0.4,65.5l3.6,4.1v0c43.6-0.7,77.2-11.9,77.2-26.1c0-14.5-34.9-25.9-79.6-26.1v0
		c0-3.9-0.1-6.4-0.1-6.4s1.7-0.8,1.8-2.1c0.1-1.3-1.3-9.3-2-11.4c-0.7-2.1-0.9-2.4-1.3-2.4c-0.5,0-0.7,0.3-1.3,2.4
		c-0.7,2.1-2.1,10.1-2,11.4c0.1,1.3,1.8,2.1,1.8,2.1s0,2.5-0.1,6.4v0C54.8,25.4,20,36.8,20,51.2C20,65.4,53.5,76.7,97.2,77.3"/>
	<polygon fill="#B38F55" points="118,142.5 134.6,128.9 130.3,128.9 113.1,143.6 129.5,160.1 136,160.1 	"/>
	<path fill="#B38F55" d="M106.7,128.8L106.7,128.8L106.7,128.8c0,0,0.4,2.1,0.4,15.1c0,13-0.4,16.1-0.4,16.1h0l0,0h2.5h2.5h0.4
		v-31.2h0l0-0.1H106.7z"/>
</g>
</svg>
